# xmcd CD database file
#
# Track frame offsets:
#	187
#	11905
#	25580
#	39050
#	49672
#	59257
#	71610
#	83752
#	93785
#	104512
#	116000
#
# Disc length: 1733 seconds
#
# Revision: 4
# Processed by: cddbd v1.5.2PL0 Copyright (c) Steve Scherf et al.
# Submitted via: CDex 1.51
#
DISCID=8006c30b
DTITLE=The O'Jays - From The Beginning [Chess Record, 1984 Compilation]
DYEAR=1984
DGENRE=Soul/R&B
TTITLE0=One Night Affair
TTITLE1=You're The Best Thing Since Candy
TTITLE2=Branded Bad
TTITLE3=Losing My Touch
TTITLE4=I Should Be Your Lover
TTITLE5=Deeper In Love With You
TTITLE6=Let Me In Your World
TTITLE7=I Can't Get Enough
TTITLE8=I've Got The Groove
TTITLE9=There's Something Waiting (Back Home)
TTITLE10=It's Too Strong
EXTD=YEAR: 1984
EXTT0=
EXTT1=
EXTT2=
EXTT3=
EXTT4=
EXTT5=
EXTT6=
EXTT7=
EXTT8=
EXTT9=
EXTT10=
PLAYORDER=
